<?xml version="1.0" encoding="UTF-8"?>
<svg id="_Слой_1" data-name="Слой 1" xmlns="http://www.w3.org/2000/svg" xmlns:xlink="http://www.w3.org/1999/xlink" viewBox="0 0 286.58 42.86">
  <defs>
    <style>
      .cls-1 {
        fill: #23242a;
      }

      .cls-2 {
        fill: url(#_Безымянный_градиент_16);
      }
    </style>
    <linearGradient id="_Безымянный_градиент_16" data-name="Безымянный градиент 16" x1="0" y1="17.31" x2="33.63" y2="17.31" gradientUnits="userSpaceOnUse">
      <stop offset="0" stop-color="#00aafb"/>
      <stop offset="1" stop-color="#00caad"/>
    </linearGradient>
  </defs>
  <g>
    <path class="cls-1" d="M50.93,5.52c-3.79-3.65-9.5-4.58-14.74-4.58h-14.75l2.25,10.78,5.9,1.23V7.49h5.48c2.39,0,5.75,.09,8.23,2.24,1.36,1.17,2.9,3.56,2.9,7.54s-1.45,6.27-3.08,7.62c-2.58,2.15-6.32,2.25-8.57,2.25h-4.96v-5.46l-5.9,1.23-2.25,10.78h13.96c4.49,0,11.13-.19,15.53-4.49,2.01-1.97,4.35-5.66,4.35-12.03,0-3.13-.56-8-4.35-11.65Z"/>
    <path class="cls-1" d="M60.23,9.92v23.77h8.23V9.92h-8.23Zm0-9.31V6.13h8.23V.61h-8.23Z"/>
    <path class="cls-1" d="M107.72,9.92v23.77h8.23V9.92h-8.23Zm0-9.31V6.13h8.23V.61h-8.23Z"/>
    <path class="cls-1" d="M94.57,9.92v2.76h-.24c-.65-.93-1.59-1.92-3.04-2.57-1.12-.52-2.76-.94-5.28-.94-2.95,0-6.51,.56-9.27,3.33-1.73,1.77-3.37,4.67-3.37,9.44,0,2.95,.61,5.85,3.18,8.29,2.72,2.52,5.76,2.99,9.13,2.99,2.76,0,4.4-.33,5.47-.79,.71-.33,1.83-.94,2.76-2.2h.19v1.77c0,1.17-.09,3.23-1.45,4.5-1.36,1.26-3.7,1.31-4.44,1.31-1.03,0-2.49-.15-3.37-.57-1.22-.6-1.5-1.49-1.55-2.1h-8.23c.04,2.06,.7,4.54,3.6,6.13,.8,.42,3.18,1.59,8.94,1.59,5.19,0,9.35-.56,11.83-3.04,2.81-2.81,2.9-7.39,2.9-9.03V9.92h-7.76Zm-1.92,16.75c-1.26,1.31-2.9,1.59-4.35,1.59-1.36,0-3.28-.23-4.68-1.73-1.12-1.17-1.73-2.95-1.73-4.96,0-2.71,.98-4.54,2.06-5.61,1.17-1.17,2.52-1.64,4.11-1.64,2.02,0,3.61,.75,4.59,1.78,1.22,1.31,1.78,3.55,1.78,5.33,0,1.64-.47,3.88-1.78,5.24Z"/>
    <path class="cls-1" d="M150.32,16.99c-2.19-1.64-5.42-2.25-8.32-2.72l-3.75-.61c-3.46-.56-4.67-.84-5.61-1.16-1.08-.38-2.34-.99-2.34-2.49,0-1.12,.56-2.19,1.64-2.85,1.12-.65,2.9-.89,4.49-.89,1.12,0,3.79,.09,5.24,.89,1.4,.75,1.87,1.82,1.96,2.99h8.71c.09-2.47-.52-5.66-4.4-7.95-2.2-1.31-5.47-2.2-11.42-2.2-3.37,0-7.44,.28-10.71,2.34-2.95,1.87-4.49,4.59-4.49,8.38,0,2.8,1.07,4.39,1.82,5.24,2.11,2.34,6.27,2.99,9.83,3.55l4.72,.75c1.17,.19,3.61,.7,4.54,1.08,1.97,.79,2.29,2.05,2.29,2.8,0,1.13-.7,2.53-2.15,3.28-.89,.47-2.2,.75-4.68,.75-1.68,0-4.63-.14-6.31-1.78-.66-.61-1.27-1.59-1.27-3.14v-.18h-8.98v.18c0,1.92,.28,5.06,2.67,7.54,3.32,3.51,9.26,3.83,14.45,3.83,6.74,0,9.88-1.31,11.56-2.52,2.06-1.5,3.84-3.98,3.84-7.96,0-2.29-.56-5.1-3.33-7.15Z"/>
    <path class="cls-1" d="M184.47,12.17c-2.81-2.67-6.27-3-9.26-3-1.69,0-3.93,.14-5.9,1.13-1.07,.56-2.2,1.45-3.09,2.62h-.14v-3h-7.86V42.34h8.24v-11.18c.75,.98,1.92,1.97,3.18,2.48,.75,.33,2.25,.8,5.47,.8,2.95,0,6.46-.24,9.36-3.05,2.95-2.9,3.46-6.82,3.46-9.77s-.47-6.65-3.46-9.45Zm-6.78,15.11c-1.31,1.54-2.86,1.92-4.73,1.92-2.48,0-3.98-.94-4.86-1.83-1.31-1.35-1.88-3.55-1.88-5.47,0-2.11,.71-4.26,2.02-5.66,1.4-1.5,3.08-1.83,4.58-1.83,2.29,0,3.84,.8,4.87,1.97,1.07,1.21,1.73,3.09,1.73,5.38,0,.84-.1,3.6-1.73,5.52Z"/>
    <path class="cls-1" d="M219.83,32.1c-.04-.14-.37-.75-.37-2.86v-10.57c0-1.97-.05-4.45-2.01-6.5-2.67-2.81-7.96-3.14-11.28-3.14-4.26,0-8.14,.38-10.81,3-1.4,1.4-2.29,3.22-2.29,5.56h8.33c.05-1.45,.94-2.24,1.36-2.57,1.12-.8,2.99-.84,3.55-.84,1.08,0,2.39,.19,3.28,.65,1.21,.66,1.49,1.59,1.49,2.34,0,.56-.18,1.17-.56,1.55-.7,.75-2.15,.84-4.35,1.03l-3.74,.32c-2.48,.24-6.46,.52-8.7,2.67-1.31,1.26-1.78,2.9-1.78,4.68,0,3.09,1.5,4.77,2.76,5.66,2.01,1.36,5.05,1.5,7.39,1.5,1.78,0,3.79-.1,5.66-.7,1.55-.52,2.72-1.27,3.7-2.53h.19l.51,2.34h8.98v-.66c-.79-.14-1.17-.7-1.31-.93Zm-8.7-8.98c0,2.52-.7,3.97-1.68,4.95-1.45,1.45-3.14,1.64-4.63,1.64-.99,0-2.25-.05-3.14-.75-.56-.42-.98-1.17-.98-2.01,0-1.12,.7-1.73,1.12-2.01,.8-.52,1.97-.7,3.32-.84l1.73-.19c2.34-.23,3.33-.37,4.26-1.17v.38Z"/>
    <path class="cls-1" d="M245.51,24.75c-.04,1.59-.79,2.86-1.78,3.56-1.17,.84-2.8,.93-3.88,.93-1.54,0-3.42-.18-4.82-1.59-1.07-1.07-1.92-2.94-1.92-5.61,0-.84,.05-3.79,1.78-5.76,1.31-1.49,3.09-1.91,4.91-1.91,1.31,0,2.81,.23,3.89,.88,1.54,.99,1.73,2.39,1.78,3.09h7.9c-.05-2.06-.6-5.14-4.3-7.3-1.36-.79-4.21-2.01-9.78-2.01-3.6,0-8.33,.56-11.51,3.93-1.54,1.64-3.18,4.49-3.18,9.22,0,5.19,2.06,7.86,3.23,9.03,3.13,3.13,7.86,3.37,11.69,3.37,4.31,0,8.57-.24,11.42-3.19,1.17-1.21,2.53-3.36,2.53-6.5v-.14h-7.96Z"/>
    <path class="cls-1" d="M286.58,23.35v-.84c0-2.86-.28-6.69-3.23-9.64-3.22-3.23-8.14-3.84-11.83-3.84s-8.28,.52-11.56,3.7c-3.13,3.04-3.55,7.02-3.55,9.45,0,2.95,.56,6.18,3.27,8.89,3.04,3.04,7.11,3.51,12.49,3.51,3.84,0,6.69-.28,8.94-1.27,3.23-1.45,4.86-4.35,5.14-7.39h-8.28c-.32,1.55-1.21,2.34-2.1,2.76-1.17,.56-3.04,.66-4.26,.66-1.59,0-3.83-.19-5.24-1.59-.79-.8-1.54-2.2-1.54-4.26v-.14h21.75Zm-19.65-7.95c1.4-1.13,2.95-1.32,4.63-1.32,1.55,0,3.47,.14,4.87,1.41,.65,.56,1.59,1.73,1.68,3.65h-13.14c.14-1.78,1.03-3,1.96-3.74Z"/>
  </g>
  <polygon class="cls-2" points="19.72 20.22 33.63 17.31 19.72 14.41 16.81 .5 13.91 14.41 0 17.31 13.91 20.22 16.81 34.13 19.72 20.22"/>
</svg>