<svg xmlns="http://www.w3.org/2000/svg" width="305" height="302" viewBox="0 0 305 302">
  <defs>
    <linearGradient id="bg" x1="0%" y1="0%" x2="100%" y2="100%">
      <stop offset="0%" stop-color="#2c3550"/>
      <stop offset="100%" stop-color="#1a2138"/>
    </linearGradient>
    <linearGradient id="accent" x1="0%" y1="0%" x2="100%" y2="0%">
      <stop offset="0%" stop-color="#00abfa"/>
      <stop offset="100%" stop-color="#00caad"/>
    </linearGradient>
  </defs>
  <rect width="305" height="302" rx="8" fill="url(#bg)"/>
  <g fill="none" stroke="#ffffff" stroke-opacity="0.07" stroke-width="1">
    <path d="M-20 240 L120 60 L220 160 L330 40"/>
    <path d="M-20 270 L140 90 L240 190 L340 80"/>
    <circle cx="40" cy="50" r="26"/>
    <circle cx="270" cy="240" r="34"/>
    <rect x="200" y="30" width="60" height="60" rx="10" transform="rotate(15 230 60)"/>
  </g>
  <text x="152" y="108" text-anchor="middle" font-family="Helvetica, Arial, sans-serif" font-size="26" font-weight="700" fill="#ffffff">DigiSpace</text>
  <rect x="82" y="124" width="140" height="3" rx="1.5" fill="url(#accent)"/>
  <text x="152" y="162" text-anchor="middle" font-family="Helvetica, Arial, sans-serif" font-size="15" fill="#cfd6e4">Web development</text>
  <text x="152" y="184" text-anchor="middle" font-family="Helvetica, Arial, sans-serif" font-size="15" fill="#cfd6e4">that ships and lasts</text>
  <rect x="87" y="212" width="130" height="38" rx="19" fill="url(#accent)"/>
  <text x="152" y="237" text-anchor="middle" font-family="Helvetica, Arial, sans-serif" font-size="14" font-weight="600" fill="#ffffff">Let&#8217;s talk</text>
</svg>
